<svg width="56" height="62" viewBox="0 0 56 62" fill="none" xmlns="http://www.w3.org/2000/svg">
<path d="M25.087 1.76562C25.9781 1.26349 26.9807 1 28 1C29.0193 1 30.0219 1.26349 30.913 1.76562L53.458 14.4709C53.9254 14.7346 54.3148 15.1203 54.586 15.5881C54.8571 16.0558 55 16.5886 55 17.1313V42.1978C55.0003 43.2839 54.7142 44.3503 54.1714 45.2865C53.6286 46.2226 52.8488 46.9943 51.913 47.5216L30.913 59.3563C30.0219 59.8584 29.0193 60.1219 28 60.1219C26.9807 60.1219 25.9781 59.8584 25.087 59.3563L4.087 47.5186C3.15207 46.9918 2.3729 46.221 1.83014 45.286C1.28739 44.3511 1.00079 43.2859 1 42.2009V17.1313C0.999978 16.5886 1.14293 16.0558 1.41405 15.5881C1.68516 15.1203 2.07459 14.7346 2.542 14.4709L25.087 1.76562Z" stroke="#CCCCCC" stroke-width="2" stroke-linecap="round" stroke-linejoin="round"/>
<path d="M1 15.3414L28 30.5609M28 30.5609L55 15.3414M28 30.5609V61" stroke="#CCCCCC" stroke-width="2" stroke-linejoin="round"/>
<path d="M14.5 22.9512L41.5 7.73166M10 31.5594L19 36.6488" stroke="#CCCCCC" stroke-width="2" stroke-linecap="round" stroke-linejoin="round"/>
</svg>
