<svg width="68" height="65" viewBox="0 0 68 65" fill="none" xmlns="http://www.w3.org/2000/svg">
<path d="M53.8333 51.4583H14.1667V13.5417H53.8333V51.4583ZM14.1667 8.125C11.05 8.125 8.5 10.5625 8.5 13.5417V51.4583C8.5 54.4375 11.05 56.875 14.1667 56.875H53.8333C56.95 56.875 59.5 54.4375 59.5 51.4583V13.5417C59.5 10.5625 56.95 8.125 53.8333 8.125H14.1667ZM32.5833 37.9167H35.4167V27.0833H32.5833V37.9167ZM38.25 37.9167H41.0833V33.8542H45.3333V31.1458H41.0833V29.7917H46.75V27.0833H38.25V37.9167ZM26.9167 32.5V35.2083H24.0833V29.7917H29.75C29.75 28.3021 28.475 27.0833 26.9167 27.0833H24.0833C22.525 27.0833 21.25 28.3021 21.25 29.7917V35.2083C21.25 36.6979 22.525 37.9167 24.0833 37.9167H26.9167C28.475 37.9167 29.75 36.6979 29.75 35.2083V32.5H26.9167Z" fill="#CCCCCC"/>
</svg>
