<svg width="54" height="60" viewBox="0 0 54 60" fill="none" xmlns="http://www.w3.org/2000/svg">
<path d="M11.7103 5.77817L37.2098 18.276L27 23.2786L1.647 10.8514C2.21786 10.1853 2.916 9.64706 3.71057 9.29855L11.7103 5.77817ZM16.8711 3.51065L22.8497 0.881397C25.5225 -0.293799 28.4813 -0.293799 31.1541 0.881397L50.2932 9.29855C51.084 9.65147 51.7821 10.1809 52.353 10.8514L42.1084 15.8717L16.8711 3.51065ZM53.9768 14.857L28.9286 27.1343V60C29.6889 59.8533 30.4345 59.6198 31.1541 59.303L50.2932 50.8814C51.3844 50.4009 52.3226 49.5535 52.9843 48.451C53.646 47.3485 54.0001 46.0426 54 44.7053V15.4747C54.0007 15.2684 53.9917 15.0622 53.973 14.857M25.0714 60V27.1343L0.0269999 14.857C0.00961766 15.0623 0.000608013 15.2684 0 15.4747V44.7053C0.000154835 46.0431 0.354828 47.3494 1.01725 48.452C1.67967 49.5546 2.61872 50.4016 3.71057 50.8814L22.8458 59.303C23.571 59.6206 24.3154 59.8544 25.0714 60Z" fill="#CCCCCC"/>
</svg>
